<svg xmlns="http://www.w3.org/2000/svg" viewBox="0 0 32 40" x="0px" y="0px"><defs><style>.cls-1{fill-rule:evenodd;}</style></defs><title>avatar, user, account, people</title><g><path class="cls-1" d="M22.2,15.952H20.792a7.8,7.8,0,1,0-9.584,0H9.8A7.024,7.024,0,1,0,9.8,30H22.2a7.024,7.024,0,1,0,0-14.048ZM9.848,9.8A6.152,6.152,0,1,1,16,15.952,6.155,6.155,0,0,1,9.848,9.8ZM22.2,28.353H9.8A5.377,5.377,0,1,1,9.8,17.6H22.2a5.377,5.377,0,1,1,0,10.754Z"/></g><text x="0" y="47" fill="#000000" font-size="5px" font-weight="bold" font-family="'Helvetica Neue', Helvetica, Arial-Unicode, Arial, Sans-serif">Created by Adam Baihaqi</text><text x="0" y="52" fill="#000000" font-size="5px" font-weight="bold" font-family="'Helvetica Neue', Helvetica, Arial-Unicode, Arial, Sans-serif">from the Noun Project</text></svg>